<?xml version="1.0" standalone="no"?>
<!DOCTYPE svg PUBLIC "-//W3C//DTD SVG 20010904//EN"
 "http://www.w3.org/TR/2001/REC-SVG-20010904/DTD/svg10.dtd">
<svg version="1.0" xmlns="http://www.w3.org/2000/svg"
 width="842.000000pt" height="872.000000pt" viewBox="0 0 842.000000 872.000000"
 preserveAspectRatio="xMidYMid meet">
<metadata>
Created by potrace 1.14, written by Peter Selinger 2001-2017
</metadata>
<g transform="translate(0.000000,872.000000) scale(0.100000,-0.100000)"
fill="#000000" stroke="none">
<path d="M2430 7402 l-1745 -1008 0 -2023 0 -2024 1720 -994 c946 -546 1732
-1000 1746 -1008 26 -14 73 12 1775 994 l1749 1009 0 2023 0 2023 -1740 1004
c-957 552 -1745 1006 -1750 1008 -6 2 -795 -449 -1755 -1004z m3324 -327
l1556 -897 0 -1807 0 -1807 -1566 -903 c-861 -496 -1569 -901 -1573 -899 -4 2
-708 408 -1564 902 l-1557 900 0 1807 0 1807 1558 901 c856 495 1564 899 1573
897 9 -2 717 -407 1573 -901z"/>
<path d="M5390 5649 l0 -591 -57 52 c-69 61 -195 124 -277 139 -343 62 -665
-174 -740 -541 -32 -153 -16 -347 38 -492 50 -132 168 -275 282 -342 116 -68
283 -98 422 -74 84 14 204 70 277 129 l50 41 3 -70 3 -70 159 0 160 0 0 1205
0 1205 -160 0 -160 0 0 -591z m-275 -694 c116 -30 211 -117 255 -233 92 -241
5 -517 -193 -608 -55 -26 -73 -29 -162 -29 -89 0 -107 3 -160 28 -102 48 -177
145 -211 272 -18 64 -18 216 0 280 59 223 258 345 471 290z"/>
<path d="M3223 5240 c-88 -23 -133 -46 -218 -110 -36 -27 -68 -50 -71 -50 -2
0 -4 32 -4 70 l0 70 -160 0 -160 0 0 -1075 0 -1075 160 0 160 0 0 455 c0 250
3 455 6 455 3 0 29 -20 57 -46 95 -85 251 -144 384 -144 68 0 189 25 250 51
124 53 254 182 319 315 57 119 76 209 76 364 0 161 -20 250 -83 380 -57 115
-180 241 -289 294 -135 66 -289 82 -427 46z m182 -285 c116 -30 211 -117 255
-233 91 -240 8 -508 -188 -604 -62 -31 -74 -33 -167 -33 -88 0 -107 3 -158 27
-102 48 -179 147 -213 273 -16 59 -18 214 -4 270 61 232 257 356 475 300z"/>
</g>
</svg>
